<?xml version="1.0" encoding="utf-8"?>
<!-- Generator: Adobe Illustrator 16.0.0, SVG Export Plug-In . SVG Version: 6.00 Build 0)  -->
<!DOCTYPE svg PUBLIC "-//W3C//DTD SVG 1.1//EN" "http://www.w3.org/Graphics/SVG/1.1/DTD/svg11.dtd">
<svg version="1.1" id="Layer_1" xmlns="http://www.w3.org/2000/svg" xmlns:xlink="http://www.w3.org/1999/xlink" x="0px" y="0px"
	 width="145.332px" height="82.469px" viewBox="0 0 145.332 82.469" enable-background="new 0 0 145.332 82.469"
	 xml:space="preserve">
<path fill="#F59221" d="M64.887,8.097c0.047,0.032,4.804,3.333,5.804,8.711c0.93,5.024-0.596,9.683-2.027,13.18
	c-0.035,0.085-0.027,0.174,0.02,0.246c0.027,0.044,0.096,0.119,0.235,0.125c0.403,0.018,2.225-0.767,4.414-1.979
	c0.24-0.554,0.443-1.081,0.609-1.578c1.512-4.508,0.639-7.598,0.63-7.626c-0.055-0.187-0.028-0.389,0.074-0.554
	c0.101-0.167,0.27-0.282,0.461-0.316c0.093-0.017,2.299-0.407,4.987-0.176c1.259,0.108,2.404,0.332,3.434,0.669
	c0.716-2.743,0.434-5.038-0.847-6.826C80.273,8.617,74.823,7.7,70.675,7.521c-3.141-0.135-5.659,0.148-5.683,0.151
	c-0.097,0.011-0.177,0.082-0.201,0.176C64.769,7.942,64.807,8.042,64.887,8.097"/>
<path fill="#F59221" d="M101.903,18.186c-0.023-0.008-0.054-0.015-0.079-0.016c-0.09-0.004-0.178,0.046-0.22,0.126
	c-0.074,0.14,0.002,0.237,0.113,0.385c0.955,1.259,1.513,2.742,1.66,4.406c0.136,1.538-0.294,3.043-0.677,3.985
	c0.167-3.145-1.119-7.628-3.614-10.063c-2.841-2.773-8.658-5.212-9.272-5.238c-0.146-0.006-0.23,0.078-0.262,0.159
	c-0.02,0.052-0.047,0.186,0.107,0.309c1.604,1.28,3.108,3.398,4.132,5.811c0.82,1.933,1.708,4.947,1.292,8.34
	c-0.235,1.921-0.947,4.843-3.003,7.86c-1.969,2.887-4.712,5.2-8.152,6.875c-0.173,0.083-0.246,0.195-0.216,0.332
	c0.042,0.207,0.27,0.217,0.345,0.22c0.697,0.03,3.461-0.459,6.629-1.422c2.857-0.868,6.896-2.38,9.911-4.657
	c4.527-3.419,5.387-6.604,5.631-8.996C106.636,22.632,103.188,18.669,101.903,18.186"/>
<path fill="#F59120" d="M59.506,44.74c-0.418-0.05-0.749-0.088-0.809-0.386c-0.029-0.145,0.052-0.311,0.18-0.385
	C78.94,32.476,75.847,19.84,75.814,19.714c-0.025-0.094-0.009-0.194,0.045-0.275c0.052-0.082,0.139-0.137,0.234-0.151
	c0.092-0.014,2.266-0.328,4.898-0.018c2.878,0.338,5.117,1.271,6.657,2.771c2.416,2.353,3.33,5.227,2.646,8.307
	c-1.138,5.12-6.622,10.208-13.651,12.661C70.598,45.121,61.844,45.016,59.506,44.74L59.506,44.74z"/>
<path fill="#808184" d="M71.838,55.687v12.012c0,4.039-2.539,6.496-6.47,6.496c-2.593,0-4.75-1.064-6.251-2.566l1.229-1.475
	c1.501,1.311,2.976,2.103,4.968,2.103c2.757,0,4.422-1.585,4.422-4.45v-1.174c-1.064,1.393-2.947,2.211-4.941,2.211
	c-3.739,0-6.524-2.865-6.524-6.714c0-3.822,2.785-6.742,6.524-6.742c2.102,0,4.041,0.899,5.05,2.429v-2.129H71.838z M65.124,57.378
	c-2.703,0-4.723,1.994-4.723,4.777c0,2.812,2.02,4.75,4.723,4.75c2.429,0,4.64-1.557,4.64-4.776
	C69.764,58.935,67.526,57.378,65.124,57.378"/>
<path fill="#808184" d="M82.84,57.541h-0.793c-2.236,0-4.176,1.447-4.176,3.905v7.533h-2.101V55.687h1.964v1.882
	c0.955-1.282,2.512-1.991,4.122-1.991c0.301,0,0.627,0.026,0.983,0.109V57.541z"/>
<path fill="#808184" d="M90.7,55.387c3.794-0.057,7.044,3.139,6.962,6.932c0.082,3.74-3.193,7.017-6.988,6.934
	c-3.794,0.083-6.988-3.193-6.934-6.934C83.658,58.525,86.907,55.304,90.7,55.387 M90.7,57.323c-2.729,0-4.804,2.157-4.804,5.024
	c0,2.783,2.075,4.967,4.777,4.967s4.832-2.184,4.832-4.967C95.506,59.48,93.404,57.323,90.7,57.323"/>
<path fill="#808184" d="M100.5,55.687h2.075v8.135c0,2.156,1.474,3.521,3.439,3.521c1.938,0,3.386-1.42,3.386-3.521v-8.135h2.101
	v7.998c0,3.357-2.4,5.595-5.486,5.595c-3.111,0-5.515-2.237-5.515-5.595V55.687z"/>
<path fill="#808184" d="M122.257,69.279c-1.966,0-3.794-0.818-4.886-2.211v6.825h-2.103V55.687h1.966v2.129
	c1.011-1.529,2.947-2.429,5.022-2.429c3.794,0,6.579,3.028,6.579,6.932C128.836,66.224,125.996,69.279,122.257,69.279
	 M121.957,57.323c-2.376,0-4.613,1.638-4.613,4.995c0,3.385,2.156,5.023,4.613,5.023c2.703,0,4.722-2.13,4.722-4.994
	C126.679,59.48,124.66,57.323,121.957,57.323"/>
<path fill="#808084" d="M30.946,55.368c1.049-1.138,1.58-2.575,1.58-4.28c0-4.171-3.292-7.083-8.006-7.083h-9.145
	c-0.163,0-0.295,0.132-0.295,0.295v24.348c0,0.164,0.132,0.296,0.295,0.296h11.358c4.888,0,8.302-3.064,8.302-7.453
	C35.034,58.658,33.588,56.499,30.946,55.368 M29.536,61.307c0,1.757-1.156,2.766-3.171,2.766h-5.897v-5.533h5.897
	C28.35,58.539,29.536,59.574,29.536,61.307 M24.114,53.854h-3.647v-4.979h3.647c1.854,0,2.877,0.878,2.877,2.472
	S25.942,53.854,24.114,53.854"/>
<path fill="#808084" d="M56.561,44.142c-0.054-0.085-0.148-0.137-0.25-0.137h-5.607c-0.116,0-0.222,0.069-0.27,0.174l-5.781,12.979
	l-5.815-12.979c-0.048-0.104-0.154-0.174-0.271-0.174h-5.644c-0.102,0-0.196,0.053-0.25,0.137c-0.054,0.086-0.062,0.194-0.018,0.285
	l11.73,24.791c0.049,0.103,0.154,0.169,0.268,0.169l0,0c0.115,0,0.219-0.067,0.268-0.17l11.657-24.79
	C56.622,44.336,56.615,44.228,56.561,44.142"/>
</svg>
