<?xml version="1.0" encoding="utf-8"?>
<!-- Generator: Adobe Illustrator 15.1.0, SVG Export Plug-In . SVG Version: 6.00 Build 0)  -->
<!DOCTYPE svg PUBLIC "-//W3C//DTD SVG 1.1//EN" "http://www.w3.org/Graphics/SVG/1.1/DTD/svg11.dtd">
<svg version="1.1" id="Layer_1" xmlns="http://www.w3.org/2000/svg" xmlns:xlink="http://www.w3.org/1999/xlink" x="0px" y="0px"
	 width="30px" height="30px" viewBox="0 0 30 30" enable-background="new 0 0 30 30" xml:space="preserve">
<path fill="#A4AAB4" d="M24.401,21.246L24.401,21.246c0,0-2.493-1.633-3.551-2.399c-0.381-0.288-0.861-0.383-1.248-0.383
	c-0.576,0-0.96,0.289-0.96,0.289l0,0c0,0-0.191,0.19-0.673,0.575c-0.479,0.386-1.056,0.288-1.535-0.192
	c-0.673-0.576-4.224-4.991-5.281-6.528c-0.191-0.288-0.288-0.576-0.288-0.863c0.097-0.576,0.769-0.96,1.057-1.249l0.096-0.096
	c0.671-0.48,0.768-1.345,0.576-1.92c-0.192-0.384-1.535-3.455-1.728-3.839c-0.288-0.193-0.576-0.672-1.343-0.672
	c-0.48,0-1.632,0.191-2.4,0.768L6.932,4.832C6.259,5.312,4.916,6.175,4.916,8c0,2.4,1.728,5.855,5.376,10.753
	c3.84,5.183,8.448,7.68,10.369,7.68c1.727,0,3.455-2.112,3.935-3.17C25.173,22.302,24.787,21.536,24.401,21.246z"/>
</svg>
