<?xml version="1.0" encoding="utf-8"?>
<!-- Generator: Adobe Illustrator 16.0.0, SVG Export Plug-In . SVG Version: 6.00 Build 0)  -->
<!DOCTYPE svg PUBLIC "-//W3C//DTD SVG 1.1//EN" "http://www.w3.org/Graphics/SVG/1.1/DTD/svg11.dtd">
<svg version="1.1" id="Layer_1" xmlns="http://www.w3.org/2000/svg" xmlns:xlink="http://www.w3.org/1999/xlink" x="0px" y="0px"
	 width="30px" height="30px" viewBox="0 0 30 30" enable-background="new 0 0 30 30" xml:space="preserve">
<g>
	<path fill="#A4AAB4" d="M26.397,14.309h-4.625c-0.037-1.635-0.346-3.223-0.918-4.729c1.073-0.589,2.044-1.333,2.89-2.216
		C25.386,9.317,26.32,11.757,26.397,14.309z"/>
	<path fill="#A4AAB4" d="M10.032,20.068C11.468,19.375,13,19,14.598,18.952v6.562C12.621,24.249,11.021,22.342,10.032,20.068z"/>
	<path fill="#A4AAB4" d="M15.401,11.063c1.687-0.047,3.307-0.438,4.827-1.165c0.524,1.408,0.809,2.887,0.847,4.411h-5.673V11.063
		L15.401,11.063z"/>
	<path fill="#A4AAB4" d="M15.401,10.364v-6.56c1.978,1.263,3.578,3.169,4.566,5.444C18.531,9.941,16.998,10.316,15.401,10.364z"/>
	<path fill="#A4AAB4" d="M14.598,10.364C13,10.316,11.469,9.941,10.032,9.249c0.989-2.275,2.588-4.182,4.566-5.444V10.364z"/>
	<path fill="#A4AAB4" d="M9.771,9.897c1.52,0.728,3.139,1.118,4.827,1.165v3.246H8.925C8.963,12.785,9.246,11.305,9.771,9.897z"/>
	<path fill="#A4AAB4" d="M14.598,15.008v3.245c-1.688,0.049-3.307,0.438-4.827,1.166c-0.524-1.406-0.808-2.887-0.846-4.411H14.598
		L14.598,15.008z"/>
	<path fill="#A4AAB4" d="M15.401,18.952c1.597,0.048,3.13,0.423,4.567,1.115c-0.988,2.275-2.589,4.182-4.567,5.445V18.952z"/>
	<path fill="#A4AAB4" d="M20.229,19.419c-1.521-0.728-3.14-1.117-4.828-1.166v-3.245h5.673
		C21.036,16.532,20.752,18.013,20.229,19.419z"/>
	<path fill="#A4AAB4" d="M23.271,6.835c-0.787,0.828-1.687,1.526-2.685,2.084c-1.013-2.304-2.623-4.247-4.61-5.575
		C18.741,3.572,21.345,4.814,23.271,6.835z"/>
	<path fill="#A4AAB4" d="M14.023,3.345c-1.988,1.328-3.599,3.271-4.611,5.575C8.415,8.361,7.516,7.664,6.729,6.835
		C8.654,4.814,11.256,3.572,14.023,3.345z"/>
	<path fill="#A4AAB4" d="M6.254,7.363C7.101,8.246,8.072,8.99,9.145,9.579c-0.572,1.508-0.881,3.095-0.918,4.729H3.601
		C3.68,11.757,4.614,9.316,6.254,7.363z"/>
	<path fill="#A4AAB4" d="M3.601,15.008h4.625c0.038,1.635,0.347,3.223,0.918,4.729c-1.073,0.592-2.044,1.334-2.891,2.217
		C4.614,19.999,3.68,17.56,3.601,15.008z"/>
	<path fill="#A4AAB4" d="M6.729,22.479c0.787-0.825,1.687-1.523,2.684-2.082c1.013,2.303,2.623,4.247,4.612,5.574
		C11.258,25.744,8.654,24.502,6.729,22.479z"/>
	<path fill="#A4AAB4" d="M15.976,25.972c1.987-1.327,3.598-3.271,4.61-5.574c0.999,0.559,1.898,1.257,2.686,2.082
		C21.345,24.502,18.742,25.744,15.976,25.972z"/>
	<path fill="#A4AAB4" d="M23.744,21.954c-0.845-0.882-1.815-1.625-2.89-2.217c0.572-1.507,0.881-3.095,0.918-4.729h4.625
		C26.32,17.56,25.386,19.999,23.744,21.954z"/>
</g>
</svg>
